<svg width="38" height="30" viewBox="0 0 38 30" fill="none" xmlns="http://www.w3.org/2000/svg">
<path d="M0.25 0H37.75V30H0.25V0Z" stroke="#E5E7EB"/>
<g clip-path="url(#clip0_1_555)">
<path d="M8.6875 0C9.9307 0 11.123 0.49386 12.0021 1.37294C12.8811 2.25201 13.375 3.4443 13.375 4.6875C13.375 5.9307 12.8811 7.12299 12.0021 8.00206C11.123 8.88114 9.9307 9.375 8.6875 9.375C7.4443 9.375 6.25201 8.88114 5.37294 8.00206C4.49386 7.12299 4 5.9307 4 4.6875C4 3.4443 4.49386 2.25201 5.37294 1.37294C6.25201 0.49386 7.4443 0 8.6875 0ZM30.25 0C31.4932 0 32.6855 0.49386 33.5646 1.37294C34.4436 2.25201 34.9375 3.4443 34.9375 4.6875C34.9375 5.9307 34.4436 7.12299 33.5646 8.00206C32.6855 8.88114 31.4932 9.375 30.25 9.375C29.0068 9.375 27.8145 8.88114 26.9354 8.00206C26.0564 7.12299 25.5625 5.9307 25.5625 4.6875C25.5625 3.4443 26.0564 2.25201 26.9354 1.37294C27.8145 0.49386 29.0068 0 30.25 0ZM0.25 17.502C0.25 14.0508 3.05078 11.25 6.50195 11.25H9.00391C9.93555 11.25 10.8203 11.4551 11.6172 11.8184C11.541 12.2402 11.5059 12.6797 11.5059 13.125C11.5059 15.3633 12.4902 17.373 14.043 18.75C14.0312 18.75 14.0195 18.75 14.002 18.75H1.49805C0.8125 18.75 0.25 18.1875 0.25 17.502ZM23.998 18.75C23.9863 18.75 23.9746 18.75 23.957 18.75C25.5156 17.373 26.4941 15.3633 26.4941 13.125C26.4941 12.6797 26.4531 12.2461 26.3828 11.8184C27.1797 11.4492 28.0645 11.25 28.9961 11.25H31.498C34.9492 11.25 37.75 14.0508 37.75 17.502C37.75 18.1934 37.1875 18.75 36.502 18.75H23.998ZM13.375 13.125C13.375 11.6332 13.9676 10.2024 15.0225 9.14752C16.0774 8.09263 17.5082 7.5 19 7.5C20.4918 7.5 21.9226 8.09263 22.9775 9.14752C24.0324 10.2024 24.625 11.6332 24.625 13.125C24.625 14.6168 24.0324 16.0476 22.9775 17.1025C21.9226 18.1574 20.4918 18.75 19 18.75C17.5082 18.75 16.0774 18.1574 15.0225 17.1025C13.9676 16.0476 13.375 14.6168 13.375 13.125ZM7.75 28.4355C7.75 24.123 11.248 20.625 15.5605 20.625H22.4395C26.752 20.625 30.25 24.123 30.25 28.4355C30.25 29.2969 29.5527 30 28.6855 30H9.31445C8.45312 30 7.75 29.3027 7.75 28.4355Z" fill="black"/>
</g>
<defs>
<clipPath id="clip0_1_555">
<path d="M0.25 0H37.75V30H0.25V0Z" fill="white"/>
</clipPath>
</defs>
</svg>
