<svg width="28" height="30" viewBox="0 0 28 30" fill="none" xmlns="http://www.w3.org/2000/svg">
<path d="M0.875 0H27.125V30H0.875V0Z" stroke="#E5E7EB"/>
<g clip-path="url(#clip0_1_553)">
<path d="M21.3477 2.61332C21.6934 1.81059 21.4355 0.873089 20.7266 0.357464C20.0176 -0.158161 19.0508 -0.111286 18.3887 0.462932L3.38867 13.5879C2.80274 14.1036 2.5918 14.9297 2.86719 15.6563C3.14258 16.3829 3.84571 16.875 4.625 16.875H11.1582L6.65235 27.3868C6.30664 28.1895 6.56446 29.127 7.27344 29.6426C7.98242 30.1582 8.94922 30.1114 9.61133 29.5372L24.6113 16.4122C25.1973 15.8965 25.4082 15.0704 25.1328 14.3438C24.8574 13.6172 24.1602 13.1309 23.375 13.1309H16.8418L21.3477 2.61332Z" fill="black"/>
</g>
<defs>
<clipPath id="clip0_1_553">
<path d="M0.875 0H27.125V30H0.875V0Z" fill="white"/>
</clipPath>
</defs>
</svg>
